<svg xmlns="http://www.w3.org/2000/svg" width="152" height="152" viewBox="0 0 152 152">
  <defs>
    <linearGradient id="bg" x1="0" y1="0" x2="1" y2="1">
      <stop offset="0" stop-color="#1E293B"/>
      <stop offset="1" stop-color="#0F172A"/>
    </linearGradient>
    <linearGradient id="flame" x1="0.5" y1="0" x2="0.5" y2="1">
      <stop offset="0" stop-color="#F59E0B"/>
      <stop offset="0.5" stop-color="#E8762F"/>
      <stop offset="1" stop-color="#DC2626"/>
    </linearGradient>
  </defs>
  <rect width="152" height="152" rx="27.36" fill="url(#bg)"/>
  <g transform="translate(76.0,68.4) scale(1.52)">
    <path d="M0-35C21-24.5 24.5-7 14 24.5 7 35 0 35 0 35S-7 35-14 24.5C-24.5-7-21-24.5 0-35Z" fill="url(#flame)"/>
    <path d="M0-10C8-4 10 5 6 17 3 22 0 22 0 22S-3 22-6 17C-10 5-8-4 0-10Z" fill="#FCD34D"/>
  </g>
  <text x="76.0" y="133.76" text-anchor="middle" fill="white" font-family="sans-serif" font-weight="bold" font-size="15.200000000000001">FYRECOMP</text>
</svg>