<svg xmlns="http://www.w3.org/2000/svg" width="512" height="512" viewBox="0 0 512 512">
  <defs>
    <linearGradient id="bg" x1="0" y1="0" x2="1" y2="1">
      <stop offset="0" stop-color="#1E293B"/>
      <stop offset="1" stop-color="#0F172A"/>
    </linearGradient>
    <linearGradient id="flame" x1="0.5" y1="0" x2="0.5" y2="1">
      <stop offset="0" stop-color="#F59E0B"/>
      <stop offset="0.5" stop-color="#E8762F"/>
      <stop offset="1" stop-color="#DC2626"/>
    </linearGradient>
  </defs>
  <rect width="512" height="512" rx="92.16" fill="url(#bg)"/>
  <g transform="translate(256.0,230.4) scale(5.12)">
    <path d="M0-35C21-24.5 24.5-7 14 24.5 7 35 0 35 0 35S-7 35-14 24.5C-24.5-7-21-24.5 0-35Z" fill="url(#flame)"/>
    <path d="M0-10C8-4 10 5 6 17 3 22 0 22 0 22S-3 22-6 17C-10 5-8-4 0-10Z" fill="#FCD34D"/>
  </g>
  <text x="256.0" y="450.56" text-anchor="middle" fill="white" font-family="sans-serif" font-weight="bold" font-size="51.2">FYRECOMP</text>
</svg>